<svg width="45" height="45" viewBox="0 0 45 45" fill="none" xmlns="http://www.w3.org/2000/svg">
<g clip-path="url(#clip0_0_682)">
<path d="M22.5 45C22.5 45 6.75 24.4575 6.75 15.75C6.75 13.6817 7.15739 11.6336 7.9489 9.72274C8.74041 7.81186 9.90055 6.07559 11.3631 4.61307C12.8256 3.15055 14.5619 1.99041 16.4727 1.1989C18.3836 0.407386 20.4317 0 22.5 0C24.5683 0 26.6164 0.407386 28.5273 1.1989C30.4381 1.99041 32.1744 3.15055 33.6369 4.61307C35.0995 6.07559 36.2596 7.81186 37.0511 9.72274C37.8426 11.6336 38.25 13.6817 38.25 15.75C38.25 24.4575 22.5 45 22.5 45ZM22.5 20.25C23.6935 20.25 24.8381 19.7759 25.682 18.932C26.5259 18.0881 27 16.9435 27 15.75C27 14.5565 26.5259 13.4119 25.682 12.568C24.8381 11.7241 23.6935 11.25 22.5 11.25C21.3065 11.25 20.1619 11.7241 19.318 12.568C18.4741 13.4119 18 14.5565 18 15.75C18 16.9435 18.4741 18.0881 19.318 18.932C20.1619 19.7759 21.3065 20.25 22.5 20.25Z" fill="#101B37"/>
</g>
<defs>
<clipPath id="clip0_0_682">
<rect width="45" height="45" fill="white"/>
</clipPath>
</defs>
</svg>
