<svg width="61" height="61" viewBox="0 0 61 61" fill="none" xmlns="http://www.w3.org/2000/svg">
<path d="M0.949219 30.9493C0.949219 14.3864 14.1801 0.959473 30.5012 0.959473C46.8223 0.959473 60.0531 14.3864 60.0531 30.9493C60.0531 47.5123 46.8223 60.9392 30.5012 60.9392C14.1801 60.9392 0.949219 47.5123 0.949219 30.9493Z" fill="url(#paint0_linear_93_577)" style=""/>
<mask id="mask0_93_577" style="mask-type:luminance" maskUnits="userSpaceOnUse" x="0" y="0" width="61" height="61">
<path fill-rule="evenodd" clip-rule="evenodd" d="M0.949219 30.9493C0.949219 14.3864 14.1801 0.959473 30.5012 0.959473C46.8223 0.959473 60.0531 14.3864 60.0531 30.9493C60.0531 47.5123 46.8223 60.9392 30.5012 60.9392C14.1801 60.9392 0.949219 47.5123 0.949219 30.9493Z" fill="white" style="fill:white;fill-opacity:1;"/>
</mask>
<g mask="url(#mask0_93_577)">
<path fill-rule="evenodd" clip-rule="evenodd" d="M30.5028 14.9547C26.2223 14.9547 25.6851 14.9737 24.0039 15.0514C22.326 15.1294 21.1807 15.3989 20.1785 15.7945C19.1419 16.203 18.2625 16.7495 17.3865 17.6389C16.5098 18.5279 15.9713 19.4203 15.5674 20.4719C15.1766 21.4893 14.9107 22.6519 14.8351 24.354C14.7599 26.0601 14.7402 26.6056 14.7402 30.9495C14.7402 35.2934 14.7593 35.8369 14.8355 37.543C14.9126 39.2458 15.1783 40.4081 15.5677 41.4251C15.9706 42.477 16.5091 43.3694 17.3855 44.2585C18.2612 45.1482 19.1406 45.696 20.1765 46.1045C21.1793 46.5001 22.325 46.7696 24.0026 46.8476C25.6838 46.9253 26.2206 46.9442 30.5008 46.9442C34.7816 46.9442 35.3171 46.9253 36.9983 46.8476C38.6763 46.7696 39.8229 46.5001 40.8257 46.1045C41.862 45.696 42.74 45.1482 43.6158 44.2585C44.4925 43.3694 45.031 42.477 45.4349 41.4254C45.8223 40.4081 46.0883 39.2454 46.1671 37.5433C46.2426 35.8372 46.2623 35.2934 46.2623 30.9495C46.2623 26.6056 46.2426 26.0604 46.1671 24.3543C46.0883 22.6516 45.8223 21.4893 45.4349 20.4723C45.031 19.4203 44.4925 18.5279 43.6158 17.6389C42.739 16.7492 41.8623 16.2027 40.8247 15.7945C39.8199 15.3989 38.674 15.1294 36.996 15.0514C35.3149 14.9737 34.7796 14.9547 30.4978 14.9547H30.5028ZM29.9768 17.837H29.9774L30.5028 17.8371C34.711 17.8371 35.2098 17.8525 36.8716 17.9291C38.4083 18.0004 39.2423 18.261 39.7979 18.4799C40.5335 18.7698 41.0578 19.1164 41.6092 19.6762C42.1608 20.236 42.5023 20.7692 42.7886 21.5156C43.0043 22.0787 43.2615 22.9251 43.3314 24.4846C43.4069 26.1707 43.4233 26.6772 43.4233 30.9458C43.4233 35.2144 43.4069 35.7209 43.3314 37.407C43.2611 38.9665 43.0043 39.8129 42.7886 40.3761C42.5029 41.1225 42.1608 41.654 41.6092 42.2135C41.0575 42.7733 40.5338 43.1198 39.7979 43.4097C39.243 43.6297 38.4083 43.8896 36.8716 43.9609C35.2101 44.0375 34.711 44.0542 30.5028 44.0542C26.2942 44.0542 25.7954 44.0375 24.1339 43.9609C22.5972 43.8889 21.7632 43.6283 21.2073 43.4094C20.4717 43.1195 19.9464 42.7729 19.3947 42.2131C18.8431 41.6533 18.5016 41.1215 18.2153 40.3747C17.9995 39.8116 17.7424 38.9652 17.6725 37.4057C17.597 35.7196 17.5818 35.2131 17.5818 30.9418C17.5818 26.6706 17.597 26.1667 17.6725 24.4806C17.7427 22.9211 17.9995 22.0747 18.2153 21.5109C18.5009 20.7645 18.8431 20.2313 19.3947 19.6715C19.9464 19.1117 20.4717 18.7652 21.2073 18.4746C21.7628 18.2547 22.5972 17.9947 24.1339 17.9231C25.5879 17.8565 26.1514 17.8365 29.0888 17.8331V17.8371C29.3631 17.8367 29.6581 17.8368 29.9763 17.837H29.9766H29.9768ZM37.0246 22.4116C37.0246 21.3516 37.8718 20.4929 38.916 20.4929V20.4923C39.9601 20.4923 40.8073 21.352 40.8073 22.4116C40.8073 23.4713 39.9601 24.331 38.916 24.331C37.8718 24.331 37.0246 23.4713 37.0246 22.4116ZM30.5028 22.7355C26.0328 22.7355 22.4087 26.4133 22.4087 30.9495C22.4087 35.4857 26.0328 39.1618 30.5028 39.1618C34.9727 39.1618 38.5955 35.4857 38.5955 30.9495C38.5955 26.4133 34.9724 22.7355 30.5024 22.7355H30.5028ZM35.7565 30.9495C35.7565 28.0048 33.4041 25.6179 30.5028 25.6179C27.6011 25.6179 25.249 28.0048 25.249 30.9495C25.249 33.8939 27.6011 36.2811 30.5028 36.2811C33.4041 36.2811 35.7565 33.8939 35.7565 30.9495Z" fill="white" style="fill:white;fill-opacity:1;"/>
</g>
<defs>
<linearGradient id="paint0_linear_93_577" x1="2.18055" y1="32.1989" x2="57.5905" y2="32.1989" gradientUnits="userSpaceOnUse">
<stop style="stop-color:black;stop-opacity:1;"/>
<stop offset="1" style="stop-color:black;stop-opacity:1;"/>
</linearGradient>
</defs>
</svg>
