<svg width="60" height="61" viewBox="0 0 60 61" fill="none" xmlns="http://www.w3.org/2000/svg">
<path d="M0.897461 30.9493C0.897461 14.3864 14.1283 0.959473 30.4494 0.959473C46.7705 0.959473 60.0014 14.3864 60.0014 30.9493C60.0014 47.5123 46.7705 60.9392 30.4494 60.9392C14.1283 60.9392 0.897461 47.5123 0.897461 30.9493Z" fill="black" style="fill:black;fill-opacity:1;"/>
<path d="M45.5518 23.5433C45.1893 22.1301 44.1212 21.0172 42.7648 20.6395C40.3068 19.953 30.4495 19.953 30.4495 19.953C30.4495 19.953 20.5922 19.953 18.1341 20.6395C16.7777 21.0172 15.7095 22.1301 15.347 23.5433C14.6885 26.1047 14.6885 31.4491 14.6885 31.4491C14.6885 31.4491 14.6885 36.7934 15.347 39.3549C15.7095 40.7682 16.7777 41.8811 18.1341 42.259C20.5922 42.9452 30.4495 42.9453 30.4495 42.9453C30.4495 42.9453 40.3068 42.9452 42.7648 42.259C44.1212 41.8811 45.1893 40.7682 45.5518 39.3549C46.2106 36.7934 46.2106 31.4491 46.2106 31.4491C46.2106 31.4491 46.2106 26.1047 45.5518 23.5433Z" fill="white" style="fill:white;fill-opacity:1;"/>
<path d="M27.4941 36.9473V26.9507L35.3747 31.9492L27.4941 36.9473Z" fill="black" style="fill:black;fill-opacity:1;"/>
</svg>
